<mxfile host="Electron" modified="2024-02-28T06:22:30.963Z" agent="Mozilla/5.0 (X11; Linux x86_64) AppleWebKit/537.36 (KHTML, like Gecko) draw.io/23.1.5 Chrome/120.0.6099.109 Electron/28.1.0 Safari/537.36" etag="CM4qR5c6Fmi3fPkZmbuj" version="23.1.5" type="device">
  <diagram name="Page-1" id="okQUsLcCIn6qNMJXYvbM">
    <mxGraphModel dx="4580" dy="1203" grid="1" gridSize="10" guides="1" tooltips="1" connect="1" arrows="1" fold="1" page="1" pageScale="1" pageWidth="850" pageHeight="1100" math="0" shadow="0">
      <root>
        <mxCell id="0" />
        <mxCell id="1" parent="0" />
        <mxCell id="1oog33LeQx-Wt4bM4erJ-16" value="&lt;font style=&quot;font-size: 48px;&quot;&gt;Controller Node&lt;/font&gt;" style="rounded=1;whiteSpace=wrap;html=1;verticalAlign=top;" parent="1" vertex="1">
          <mxGeometry x="-1270" y="390" width="420" height="180" as="geometry" />
        </mxCell>
        <mxCell id="1oog33LeQx-Wt4bM4erJ-14" value="&lt;font style=&quot;font-size: 24px;&quot;&gt;Controller&lt;/font&gt;" style="rounded=1;whiteSpace=wrap;html=1;verticalAlign=middle;" parent="1" vertex="1">
          <mxGeometry x="-1210" y="450" width="120" height="60" as="geometry" />
        </mxCell>
        <mxCell id="0VppsKLyr3tMA3nW60oo-5" value="&lt;font style=&quot;font-size: 48px;&quot;&gt;Host&lt;/font&gt;" style="rounded=1;whiteSpace=wrap;html=1;verticalAlign=top;" parent="1" vertex="1">
          <mxGeometry x="-1410" y="180" width="240" height="150" as="geometry" />
        </mxCell>
        <mxCell id="0VppsKLyr3tMA3nW60oo-6" value="&lt;font style=&quot;font-size: 24px;&quot;&gt;nvmeof&lt;br&gt;&lt;/font&gt;" style="rounded=0;whiteSpace=wrap;html=1;" parent="1" vertex="1">
          <mxGeometry x="-1350" y="240" width="120" height="60" as="geometry" />
        </mxCell>
        <mxCell id="CMu3Gh7YvbsZgN_vGiJ3-20" value="&lt;font style=&quot;font-size: 48px;&quot;&gt;Disk Node&lt;/font&gt;" style="rounded=1;whiteSpace=wrap;html=1;verticalAlign=top;" parent="1" vertex="1">
          <mxGeometry x="-1495" y="630" width="420" height="210" as="geometry" />
        </mxCell>
        <mxCell id="CMu3Gh7YvbsZgN_vGiJ3-22" value="&lt;font style=&quot;font-size: 24px;&quot;&gt;Physical&lt;br&gt;Disk&lt;/font&gt;" style="shape=cylinder3;whiteSpace=wrap;html=1;boundedLbl=1;backgroundOutline=1;size=15;" parent="1" vertex="1">
          <mxGeometry x="-1345" y="870" width="120" height="80" as="geometry" />
        </mxCell>
        <mxCell id="CMu3Gh7YvbsZgN_vGiJ3-33" value="&lt;font style=&quot;font-size: 24px;&quot;&gt;/dev/nvme0n1&lt;/font&gt;" style="rounded=0;whiteSpace=wrap;html=1;" parent="1" vertex="1">
          <mxGeometry x="-1375" y="780" width="180" height="60" as="geometry" />
        </mxCell>
        <mxCell id="CMu3Gh7YvbsZgN_vGiJ3-34" value="" style="endArrow=classic;html=1;rounded=0;strokeWidth=5;strokeColor=#808080;exitX=0.5;exitY=0;exitDx=0;exitDy=0;entryX=0.5;entryY=1;entryDx=0;entryDy=0;" parent="1" source="CMu3Gh7YvbsZgN_vGiJ3-33" target="al-yUs3DC9owC33cyneI-1" edge="1">
          <mxGeometry width="50" height="50" relative="1" as="geometry">
            <mxPoint x="45" y="800" as="sourcePoint" />
            <mxPoint x="45" y="710" as="targetPoint" />
          </mxGeometry>
        </mxCell>
        <mxCell id="CMu3Gh7YvbsZgN_vGiJ3-21" value="" style="endArrow=classic;html=1;rounded=0;strokeWidth=5;strokeColor=#000000;exitX=0.5;exitY=0;exitDx=0;exitDy=0;exitPerimeter=0;entryX=0.5;entryY=1;entryDx=0;entryDy=0;" parent="1" source="CMu3Gh7YvbsZgN_vGiJ3-22" target="CMu3Gh7YvbsZgN_vGiJ3-33" edge="1">
          <mxGeometry width="50" height="50" relative="1" as="geometry">
            <mxPoint x="-965" y="1190" as="sourcePoint" />
            <mxPoint x="-915" y="1140" as="targetPoint" />
          </mxGeometry>
        </mxCell>
        <mxCell id="1oog33LeQx-Wt4bM4erJ-12" value="" style="endArrow=classic;html=1;rounded=0;strokeWidth=5;strokeColor=#808080;exitX=0.5;exitY=0;exitDx=0;exitDy=0;entryX=0.5;entryY=1;entryDx=0;entryDy=0;" parent="1" source="CMu3Gh7YvbsZgN_vGiJ3-33" target="CMu3Gh7YvbsZgN_vGiJ3-24" edge="1">
          <mxGeometry width="50" height="50" relative="1" as="geometry">
            <mxPoint x="-585" y="790" as="sourcePoint" />
            <mxPoint x="-585" y="700" as="targetPoint" />
          </mxGeometry>
        </mxCell>
        <mxCell id="CMu3Gh7YvbsZgN_vGiJ3-24" value="&lt;font style=&quot;font-size: 24px;&quot;&gt;Logical Disk&lt;/font&gt;" style="rounded=1;whiteSpace=wrap;html=1;verticalAlign=bottom;container=0;" parent="1" vertex="1">
          <mxGeometry x="-1435" y="690" width="120" height="60" as="geometry" />
        </mxCell>
        <mxCell id="al-yUs3DC9owC33cyneI-1" value="&lt;font style=&quot;font-size: 24px;&quot;&gt;Logical Disk&lt;/font&gt;" style="rounded=1;whiteSpace=wrap;html=1;verticalAlign=bottom;container=0;" vertex="1" parent="1">
          <mxGeometry x="-1255" y="690" width="120" height="60" as="geometry" />
        </mxCell>
        <mxCell id="al-yUs3DC9owC33cyneI-2" value="" style="endArrow=none;dashed=1;html=1;dashPattern=1 4;strokeWidth=5;rounded=0;exitX=1;exitY=0.5;exitDx=0;exitDy=0;entryX=1;entryY=0.5;entryDx=0;entryDy=0;" edge="1" parent="1">
          <mxGeometry width="50" height="50" relative="1" as="geometry">
            <mxPoint x="-1255" y="720" as="sourcePoint" />
            <mxPoint x="-1255" y="720" as="targetPoint" />
          </mxGeometry>
        </mxCell>
        <mxCell id="al-yUs3DC9owC33cyneI-5" value="" style="endArrow=none;dashed=1;html=1;dashPattern=1 4;strokeWidth=5;rounded=0;exitX=1;exitY=0.5;exitDx=0;exitDy=0;entryX=1;entryY=0.5;entryDx=0;entryDy=0;" edge="1" parent="1" source="CMu3Gh7YvbsZgN_vGiJ3-24">
          <mxGeometry width="50" height="50" relative="1" as="geometry">
            <mxPoint x="-1315" y="720" as="sourcePoint" />
            <mxPoint x="-1255" y="720" as="targetPoint" />
          </mxGeometry>
        </mxCell>
        <mxCell id="al-yUs3DC9owC33cyneI-8" value="&lt;font style=&quot;font-size: 48px;&quot;&gt;Disk Node&lt;/font&gt;" style="rounded=1;whiteSpace=wrap;html=1;verticalAlign=top;" vertex="1" parent="1">
          <mxGeometry x="-1045" y="630" width="420" height="210" as="geometry" />
        </mxCell>
        <mxCell id="al-yUs3DC9owC33cyneI-9" value="&lt;font style=&quot;font-size: 24px;&quot;&gt;Physical&lt;br&gt;Disk&lt;/font&gt;" style="shape=cylinder3;whiteSpace=wrap;html=1;boundedLbl=1;backgroundOutline=1;size=15;" vertex="1" parent="1">
          <mxGeometry x="-895" y="870" width="120" height="80" as="geometry" />
        </mxCell>
        <mxCell id="al-yUs3DC9owC33cyneI-10" value="&lt;font style=&quot;font-size: 24px;&quot;&gt;/dev/nvme0n1&lt;/font&gt;" style="rounded=0;whiteSpace=wrap;html=1;" vertex="1" parent="1">
          <mxGeometry x="-925" y="780" width="180" height="60" as="geometry" />
        </mxCell>
        <mxCell id="al-yUs3DC9owC33cyneI-11" value="" style="endArrow=classic;html=1;rounded=0;strokeWidth=5;strokeColor=#808080;exitX=0.5;exitY=0;exitDx=0;exitDy=0;entryX=0.5;entryY=1;entryDx=0;entryDy=0;" edge="1" parent="1" source="al-yUs3DC9owC33cyneI-10" target="al-yUs3DC9owC33cyneI-15">
          <mxGeometry width="50" height="50" relative="1" as="geometry">
            <mxPoint x="495" y="800" as="sourcePoint" />
            <mxPoint x="495" y="710" as="targetPoint" />
          </mxGeometry>
        </mxCell>
        <mxCell id="al-yUs3DC9owC33cyneI-12" value="" style="endArrow=classic;html=1;rounded=0;strokeWidth=5;strokeColor=#000000;exitX=0.5;exitY=0;exitDx=0;exitDy=0;exitPerimeter=0;entryX=0.5;entryY=1;entryDx=0;entryDy=0;" edge="1" parent="1" source="al-yUs3DC9owC33cyneI-9" target="al-yUs3DC9owC33cyneI-10">
          <mxGeometry width="50" height="50" relative="1" as="geometry">
            <mxPoint x="-515" y="1190" as="sourcePoint" />
            <mxPoint x="-465" y="1140" as="targetPoint" />
          </mxGeometry>
        </mxCell>
        <mxCell id="al-yUs3DC9owC33cyneI-13" value="" style="endArrow=classic;html=1;rounded=0;strokeWidth=5;strokeColor=#808080;exitX=0.5;exitY=0;exitDx=0;exitDy=0;entryX=0.5;entryY=1;entryDx=0;entryDy=0;" edge="1" parent="1" source="al-yUs3DC9owC33cyneI-10" target="al-yUs3DC9owC33cyneI-14">
          <mxGeometry width="50" height="50" relative="1" as="geometry">
            <mxPoint x="-135" y="790" as="sourcePoint" />
            <mxPoint x="-135" y="700" as="targetPoint" />
          </mxGeometry>
        </mxCell>
        <mxCell id="al-yUs3DC9owC33cyneI-14" value="&lt;font style=&quot;font-size: 24px;&quot;&gt;Logical Disk&lt;/font&gt;" style="rounded=1;whiteSpace=wrap;html=1;verticalAlign=bottom;container=0;" vertex="1" parent="1">
          <mxGeometry x="-985" y="690" width="120" height="60" as="geometry" />
        </mxCell>
        <mxCell id="al-yUs3DC9owC33cyneI-15" value="&lt;font style=&quot;font-size: 24px;&quot;&gt;Logical Disk&lt;/font&gt;" style="rounded=1;whiteSpace=wrap;html=1;verticalAlign=bottom;container=0;" vertex="1" parent="1">
          <mxGeometry x="-805" y="690" width="120" height="60" as="geometry" />
        </mxCell>
        <mxCell id="al-yUs3DC9owC33cyneI-16" value="" style="endArrow=none;dashed=1;html=1;dashPattern=1 4;strokeWidth=5;rounded=0;exitX=1;exitY=0.5;exitDx=0;exitDy=0;entryX=1;entryY=0.5;entryDx=0;entryDy=0;" edge="1" parent="1">
          <mxGeometry width="50" height="50" relative="1" as="geometry">
            <mxPoint x="-805" y="720" as="sourcePoint" />
            <mxPoint x="-805" y="720" as="targetPoint" />
          </mxGeometry>
        </mxCell>
        <mxCell id="al-yUs3DC9owC33cyneI-17" value="" style="endArrow=none;dashed=1;html=1;dashPattern=1 4;strokeWidth=5;rounded=0;exitX=1;exitY=0.5;exitDx=0;exitDy=0;entryX=1;entryY=0.5;entryDx=0;entryDy=0;" edge="1" parent="1" source="al-yUs3DC9owC33cyneI-14">
          <mxGeometry width="50" height="50" relative="1" as="geometry">
            <mxPoint x="-865" y="720" as="sourcePoint" />
            <mxPoint x="-805" y="720" as="targetPoint" />
          </mxGeometry>
        </mxCell>
        <mxCell id="al-yUs3DC9owC33cyneI-18" value="&lt;font style=&quot;font-size: 48px;&quot;&gt;Disk Node&lt;/font&gt;" style="rounded=1;whiteSpace=wrap;html=1;verticalAlign=top;" vertex="1" parent="1">
          <mxGeometry x="-595" y="630" width="420" height="210" as="geometry" />
        </mxCell>
        <mxCell id="al-yUs3DC9owC33cyneI-19" value="&lt;font style=&quot;font-size: 24px;&quot;&gt;Physical&lt;br&gt;Disk&lt;/font&gt;" style="shape=cylinder3;whiteSpace=wrap;html=1;boundedLbl=1;backgroundOutline=1;size=15;" vertex="1" parent="1">
          <mxGeometry x="-445" y="870" width="120" height="80" as="geometry" />
        </mxCell>
        <mxCell id="al-yUs3DC9owC33cyneI-20" value="&lt;font style=&quot;font-size: 24px;&quot;&gt;/dev/nvme0n1&lt;/font&gt;" style="rounded=0;whiteSpace=wrap;html=1;" vertex="1" parent="1">
          <mxGeometry x="-475" y="780" width="180" height="60" as="geometry" />
        </mxCell>
        <mxCell id="al-yUs3DC9owC33cyneI-21" value="" style="endArrow=classic;html=1;rounded=0;strokeWidth=5;strokeColor=#808080;exitX=0.5;exitY=0;exitDx=0;exitDy=0;entryX=0.5;entryY=1;entryDx=0;entryDy=0;" edge="1" parent="1" source="al-yUs3DC9owC33cyneI-20" target="al-yUs3DC9owC33cyneI-25">
          <mxGeometry width="50" height="50" relative="1" as="geometry">
            <mxPoint x="945" y="800" as="sourcePoint" />
            <mxPoint x="945" y="710" as="targetPoint" />
          </mxGeometry>
        </mxCell>
        <mxCell id="al-yUs3DC9owC33cyneI-22" value="" style="endArrow=classic;html=1;rounded=0;strokeWidth=5;strokeColor=#000000;exitX=0.5;exitY=0;exitDx=0;exitDy=0;exitPerimeter=0;entryX=0.5;entryY=1;entryDx=0;entryDy=0;" edge="1" parent="1" source="al-yUs3DC9owC33cyneI-19" target="al-yUs3DC9owC33cyneI-20">
          <mxGeometry width="50" height="50" relative="1" as="geometry">
            <mxPoint x="-65" y="1190" as="sourcePoint" />
            <mxPoint x="-15" y="1140" as="targetPoint" />
          </mxGeometry>
        </mxCell>
        <mxCell id="al-yUs3DC9owC33cyneI-23" value="" style="endArrow=classic;html=1;rounded=0;strokeWidth=5;strokeColor=#808080;exitX=0.5;exitY=0;exitDx=0;exitDy=0;entryX=0.5;entryY=1;entryDx=0;entryDy=0;" edge="1" parent="1" source="al-yUs3DC9owC33cyneI-20" target="al-yUs3DC9owC33cyneI-24">
          <mxGeometry width="50" height="50" relative="1" as="geometry">
            <mxPoint x="315" y="790" as="sourcePoint" />
            <mxPoint x="315" y="700" as="targetPoint" />
          </mxGeometry>
        </mxCell>
        <mxCell id="al-yUs3DC9owC33cyneI-24" value="&lt;font style=&quot;font-size: 24px;&quot;&gt;Logical Disk&lt;/font&gt;" style="rounded=1;whiteSpace=wrap;html=1;verticalAlign=bottom;container=0;" vertex="1" parent="1">
          <mxGeometry x="-535" y="690" width="120" height="60" as="geometry" />
        </mxCell>
        <mxCell id="al-yUs3DC9owC33cyneI-25" value="&lt;font style=&quot;font-size: 24px;&quot;&gt;Logical Disk&lt;/font&gt;" style="rounded=1;whiteSpace=wrap;html=1;verticalAlign=bottom;container=0;" vertex="1" parent="1">
          <mxGeometry x="-355" y="690" width="120" height="60" as="geometry" />
        </mxCell>
        <mxCell id="al-yUs3DC9owC33cyneI-26" value="" style="endArrow=none;dashed=1;html=1;dashPattern=1 4;strokeWidth=5;rounded=0;exitX=1;exitY=0.5;exitDx=0;exitDy=0;entryX=1;entryY=0.5;entryDx=0;entryDy=0;" edge="1" parent="1">
          <mxGeometry width="50" height="50" relative="1" as="geometry">
            <mxPoint x="-355" y="720" as="sourcePoint" />
            <mxPoint x="-355" y="720" as="targetPoint" />
          </mxGeometry>
        </mxCell>
        <mxCell id="al-yUs3DC9owC33cyneI-27" value="" style="endArrow=none;dashed=1;html=1;dashPattern=1 4;strokeWidth=5;rounded=0;exitX=1;exitY=0.5;exitDx=0;exitDy=0;entryX=1;entryY=0.5;entryDx=0;entryDy=0;" edge="1" parent="1" source="al-yUs3DC9owC33cyneI-24">
          <mxGeometry width="50" height="50" relative="1" as="geometry">
            <mxPoint x="-415" y="720" as="sourcePoint" />
            <mxPoint x="-355" y="720" as="targetPoint" />
          </mxGeometry>
        </mxCell>
        <mxCell id="al-yUs3DC9owC33cyneI-28" value="" style="endArrow=none;dashed=1;html=1;dashPattern=1 4;strokeWidth=5;rounded=0;exitX=1;exitY=0.5;exitDx=0;exitDy=0;entryX=0;entryY=0.5;entryDx=0;entryDy=0;" edge="1" parent="1" source="1oog33LeQx-Wt4bM4erJ-14" target="al-yUs3DC9owC33cyneI-29">
          <mxGeometry width="50" height="50" relative="1" as="geometry">
            <mxPoint x="-690" y="610" as="sourcePoint" />
            <mxPoint x="-630" y="610" as="targetPoint" />
          </mxGeometry>
        </mxCell>
        <mxCell id="al-yUs3DC9owC33cyneI-29" value="&lt;font style=&quot;font-size: 24px;&quot;&gt;Controller&lt;/font&gt;" style="rounded=1;whiteSpace=wrap;html=1;verticalAlign=middle;" vertex="1" parent="1">
          <mxGeometry x="-1030" y="450" width="120" height="60" as="geometry" />
        </mxCell>
        <mxCell id="al-yUs3DC9owC33cyneI-35" value="&lt;font style=&quot;font-size: 48px;&quot;&gt;Controller Node&lt;/font&gt;" style="rounded=1;whiteSpace=wrap;html=1;verticalAlign=top;" vertex="1" parent="1">
          <mxGeometry x="-370" y="390" width="420" height="180" as="geometry" />
        </mxCell>
        <mxCell id="al-yUs3DC9owC33cyneI-36" value="&lt;font style=&quot;font-size: 24px;&quot;&gt;Controller&lt;/font&gt;" style="rounded=1;whiteSpace=wrap;html=1;verticalAlign=middle;" vertex="1" parent="1">
          <mxGeometry x="-310" y="450" width="120" height="60" as="geometry" />
        </mxCell>
        <mxCell id="al-yUs3DC9owC33cyneI-37" value="" style="endArrow=none;dashed=1;html=1;dashPattern=1 4;strokeWidth=5;rounded=0;exitX=1;exitY=0.5;exitDx=0;exitDy=0;entryX=0;entryY=0.5;entryDx=0;entryDy=0;" edge="1" parent="1" source="al-yUs3DC9owC33cyneI-36" target="al-yUs3DC9owC33cyneI-38">
          <mxGeometry width="50" height="50" relative="1" as="geometry">
            <mxPoint x="210" y="610" as="sourcePoint" />
            <mxPoint x="270" y="610" as="targetPoint" />
          </mxGeometry>
        </mxCell>
        <mxCell id="al-yUs3DC9owC33cyneI-38" value="&lt;font style=&quot;font-size: 24px;&quot;&gt;Controller&lt;/font&gt;" style="rounded=1;whiteSpace=wrap;html=1;verticalAlign=middle;" vertex="1" parent="1">
          <mxGeometry x="-130" y="450" width="120" height="60" as="geometry" />
        </mxCell>
        <mxCell id="1oog33LeQx-Wt4bM4erJ-20" value="" style="endArrow=classic;html=1;rounded=0;strokeWidth=5;strokeColor=#0000f0;exitX=0.5;exitY=0;exitDx=0;exitDy=0;entryX=0.5;entryY=1;entryDx=0;entryDy=0;" parent="1" source="CMu3Gh7YvbsZgN_vGiJ3-24" target="1oog33LeQx-Wt4bM4erJ-14" edge="1">
          <mxGeometry width="50" height="50" relative="1" as="geometry">
            <mxPoint x="150" y="560" as="sourcePoint" />
            <mxPoint x="30" y="300" as="targetPoint" />
          </mxGeometry>
        </mxCell>
        <mxCell id="al-yUs3DC9owC33cyneI-43" value="" style="endArrow=classic;html=1;rounded=0;strokeWidth=5;strokeColor=#0000f0;exitX=0.5;exitY=0;exitDx=0;exitDy=0;entryX=0.5;entryY=1;entryDx=0;entryDy=0;" edge="1" parent="1" source="al-yUs3DC9owC33cyneI-14" target="1oog33LeQx-Wt4bM4erJ-14">
          <mxGeometry width="50" height="50" relative="1" as="geometry">
            <mxPoint x="-40" y="800" as="sourcePoint" />
            <mxPoint x="80" y="540" as="targetPoint" />
          </mxGeometry>
        </mxCell>
        <mxCell id="al-yUs3DC9owC33cyneI-44" value="&lt;font style=&quot;font-size: 48px;&quot;&gt;Disk Node&lt;/font&gt;" style="rounded=1;whiteSpace=wrap;html=1;verticalAlign=top;" vertex="1" parent="1">
          <mxGeometry x="-145" y="630" width="420" height="210" as="geometry" />
        </mxCell>
        <mxCell id="al-yUs3DC9owC33cyneI-45" value="&lt;font style=&quot;font-size: 24px;&quot;&gt;Physical&lt;br&gt;Disk&lt;/font&gt;" style="shape=cylinder3;whiteSpace=wrap;html=1;boundedLbl=1;backgroundOutline=1;size=15;" vertex="1" parent="1">
          <mxGeometry x="5" y="870" width="120" height="80" as="geometry" />
        </mxCell>
        <mxCell id="al-yUs3DC9owC33cyneI-46" value="&lt;font style=&quot;font-size: 24px;&quot;&gt;/dev/nvme0n1&lt;/font&gt;" style="rounded=0;whiteSpace=wrap;html=1;" vertex="1" parent="1">
          <mxGeometry x="-25" y="780" width="180" height="60" as="geometry" />
        </mxCell>
        <mxCell id="al-yUs3DC9owC33cyneI-47" value="" style="endArrow=classic;html=1;rounded=0;strokeWidth=5;strokeColor=#808080;exitX=0.5;exitY=0;exitDx=0;exitDy=0;entryX=0.5;entryY=1;entryDx=0;entryDy=0;" edge="1" parent="1" source="al-yUs3DC9owC33cyneI-46" target="al-yUs3DC9owC33cyneI-51">
          <mxGeometry width="50" height="50" relative="1" as="geometry">
            <mxPoint x="1395" y="800" as="sourcePoint" />
            <mxPoint x="1395" y="710" as="targetPoint" />
          </mxGeometry>
        </mxCell>
        <mxCell id="al-yUs3DC9owC33cyneI-48" value="" style="endArrow=classic;html=1;rounded=0;strokeWidth=5;strokeColor=#000000;exitX=0.5;exitY=0;exitDx=0;exitDy=0;exitPerimeter=0;entryX=0.5;entryY=1;entryDx=0;entryDy=0;" edge="1" parent="1" source="al-yUs3DC9owC33cyneI-45" target="al-yUs3DC9owC33cyneI-46">
          <mxGeometry width="50" height="50" relative="1" as="geometry">
            <mxPoint x="385" y="1190" as="sourcePoint" />
            <mxPoint x="435" y="1140" as="targetPoint" />
          </mxGeometry>
        </mxCell>
        <mxCell id="al-yUs3DC9owC33cyneI-49" value="" style="endArrow=classic;html=1;rounded=0;strokeWidth=5;strokeColor=#808080;exitX=0.5;exitY=0;exitDx=0;exitDy=0;entryX=0.5;entryY=1;entryDx=0;entryDy=0;" edge="1" parent="1" source="al-yUs3DC9owC33cyneI-46" target="al-yUs3DC9owC33cyneI-50">
          <mxGeometry width="50" height="50" relative="1" as="geometry">
            <mxPoint x="765" y="790" as="sourcePoint" />
            <mxPoint x="765" y="700" as="targetPoint" />
          </mxGeometry>
        </mxCell>
        <mxCell id="al-yUs3DC9owC33cyneI-50" value="&lt;font style=&quot;font-size: 24px;&quot;&gt;Logical Disk&lt;/font&gt;" style="rounded=1;whiteSpace=wrap;html=1;verticalAlign=bottom;container=0;" vertex="1" parent="1">
          <mxGeometry x="-85" y="690" width="120" height="60" as="geometry" />
        </mxCell>
        <mxCell id="al-yUs3DC9owC33cyneI-51" value="&lt;font style=&quot;font-size: 24px;&quot;&gt;Logical Disk&lt;/font&gt;" style="rounded=1;whiteSpace=wrap;html=1;verticalAlign=bottom;container=0;" vertex="1" parent="1">
          <mxGeometry x="95" y="690" width="120" height="60" as="geometry" />
        </mxCell>
        <mxCell id="al-yUs3DC9owC33cyneI-52" value="" style="endArrow=none;dashed=1;html=1;dashPattern=1 4;strokeWidth=5;rounded=0;exitX=1;exitY=0.5;exitDx=0;exitDy=0;entryX=1;entryY=0.5;entryDx=0;entryDy=0;" edge="1" parent="1">
          <mxGeometry width="50" height="50" relative="1" as="geometry">
            <mxPoint x="95" y="720" as="sourcePoint" />
            <mxPoint x="95" y="720" as="targetPoint" />
          </mxGeometry>
        </mxCell>
        <mxCell id="al-yUs3DC9owC33cyneI-53" value="" style="endArrow=none;dashed=1;html=1;dashPattern=1 4;strokeWidth=5;rounded=0;exitX=1;exitY=0.5;exitDx=0;exitDy=0;entryX=1;entryY=0.5;entryDx=0;entryDy=0;" edge="1" parent="1" source="al-yUs3DC9owC33cyneI-50">
          <mxGeometry width="50" height="50" relative="1" as="geometry">
            <mxPoint x="35" y="720" as="sourcePoint" />
            <mxPoint x="95" y="720" as="targetPoint" />
          </mxGeometry>
        </mxCell>
        <mxCell id="al-yUs3DC9owC33cyneI-54" value="" style="endArrow=classic;html=1;rounded=0;strokeWidth=5;strokeColor=#0000f0;exitX=0.5;exitY=0;exitDx=0;exitDy=0;entryX=0.5;entryY=1;entryDx=0;entryDy=0;" edge="1" parent="1" source="al-yUs3DC9owC33cyneI-50" target="al-yUs3DC9owC33cyneI-36">
          <mxGeometry width="50" height="50" relative="1" as="geometry">
            <mxPoint x="435" y="690" as="sourcePoint" />
            <mxPoint x="555" y="430" as="targetPoint" />
          </mxGeometry>
        </mxCell>
        <mxCell id="al-yUs3DC9owC33cyneI-55" value="" style="endArrow=classic;html=1;rounded=0;strokeWidth=5;strokeColor=#0000f0;exitX=0.5;exitY=0;exitDx=0;exitDy=0;entryX=0.5;entryY=1;entryDx=0;entryDy=0;" edge="1" parent="1" source="al-yUs3DC9owC33cyneI-15" target="al-yUs3DC9owC33cyneI-36">
          <mxGeometry width="50" height="50" relative="1" as="geometry">
            <mxPoint x="445" y="700" as="sourcePoint" />
            <mxPoint x="565" y="440" as="targetPoint" />
          </mxGeometry>
        </mxCell>
        <mxCell id="al-yUs3DC9owC33cyneI-56" value="" style="endArrow=classic;html=1;rounded=0;strokeWidth=5;strokeColor=#0000f0;exitX=0.5;exitY=0;exitDx=0;exitDy=0;entryX=0.5;entryY=1;entryDx=0;entryDy=0;" edge="1" parent="1" source="al-yUs3DC9owC33cyneI-1" target="al-yUs3DC9owC33cyneI-29">
          <mxGeometry width="50" height="50" relative="1" as="geometry">
            <mxPoint x="455" y="710" as="sourcePoint" />
            <mxPoint x="575" y="450" as="targetPoint" />
          </mxGeometry>
        </mxCell>
        <mxCell id="al-yUs3DC9owC33cyneI-57" value="" style="endArrow=classic;html=1;rounded=0;strokeWidth=5;strokeColor=#0000f0;exitX=0.5;exitY=0;exitDx=0;exitDy=0;entryX=0.5;entryY=1;entryDx=0;entryDy=0;" edge="1" parent="1" source="al-yUs3DC9owC33cyneI-24" target="al-yUs3DC9owC33cyneI-29">
          <mxGeometry width="50" height="50" relative="1" as="geometry">
            <mxPoint x="465" y="720" as="sourcePoint" />
            <mxPoint x="585" y="460" as="targetPoint" />
          </mxGeometry>
        </mxCell>
        <mxCell id="al-yUs3DC9owC33cyneI-58" value="" style="endArrow=classic;html=1;rounded=0;strokeWidth=5;strokeColor=#0000f0;exitX=0.5;exitY=0;exitDx=0;exitDy=0;" edge="1" parent="1" source="al-yUs3DC9owC33cyneI-25">
          <mxGeometry width="50" height="50" relative="1" as="geometry">
            <mxPoint x="475" y="730" as="sourcePoint" />
            <mxPoint x="-70" y="510" as="targetPoint" />
          </mxGeometry>
        </mxCell>
        <mxCell id="al-yUs3DC9owC33cyneI-59" value="" style="endArrow=classic;html=1;rounded=0;strokeWidth=5;strokeColor=#0000f0;exitX=0.5;exitY=0;exitDx=0;exitDy=0;entryX=0.5;entryY=1;entryDx=0;entryDy=0;" edge="1" parent="1" source="al-yUs3DC9owC33cyneI-51" target="al-yUs3DC9owC33cyneI-38">
          <mxGeometry width="50" height="50" relative="1" as="geometry">
            <mxPoint x="485" y="740" as="sourcePoint" />
            <mxPoint x="605" y="480" as="targetPoint" />
          </mxGeometry>
        </mxCell>
        <mxCell id="al-yUs3DC9owC33cyneI-60" value="&lt;font style=&quot;font-size: 48px;&quot;&gt;Host&lt;/font&gt;" style="rounded=1;whiteSpace=wrap;html=1;verticalAlign=top;" vertex="1" parent="1">
          <mxGeometry x="-40" y="180" width="240" height="150" as="geometry" />
        </mxCell>
        <mxCell id="al-yUs3DC9owC33cyneI-61" value="&lt;font style=&quot;font-size: 24px;&quot;&gt;nvmeof&lt;br&gt;&lt;/font&gt;" style="rounded=0;whiteSpace=wrap;html=1;" vertex="1" parent="1">
          <mxGeometry x="20" y="240" width="120" height="60" as="geometry" />
        </mxCell>
        <mxCell id="al-yUs3DC9owC33cyneI-62" value="&lt;font style=&quot;font-size: 48px;&quot;&gt;Host&lt;/font&gt;" style="rounded=1;whiteSpace=wrap;html=1;verticalAlign=top;" vertex="1" parent="1">
          <mxGeometry x="-930" y="180" width="240" height="150" as="geometry" />
        </mxCell>
        <mxCell id="al-yUs3DC9owC33cyneI-63" value="&lt;font style=&quot;font-size: 24px;&quot;&gt;nvmeof&lt;br&gt;&lt;/font&gt;" style="rounded=0;whiteSpace=wrap;html=1;" vertex="1" parent="1">
          <mxGeometry x="-870" y="240" width="120" height="60" as="geometry" />
        </mxCell>
        <mxCell id="al-yUs3DC9owC33cyneI-64" value="&lt;font style=&quot;font-size: 48px;&quot;&gt;Host&lt;/font&gt;" style="rounded=1;whiteSpace=wrap;html=1;verticalAlign=top;" vertex="1" parent="1">
          <mxGeometry x="-520" y="180" width="240" height="150" as="geometry" />
        </mxCell>
        <mxCell id="al-yUs3DC9owC33cyneI-65" value="&lt;font style=&quot;font-size: 24px;&quot;&gt;nvmeof&lt;br&gt;&lt;/font&gt;" style="rounded=0;whiteSpace=wrap;html=1;" vertex="1" parent="1">
          <mxGeometry x="-460" y="240" width="120" height="60" as="geometry" />
        </mxCell>
        <mxCell id="al-yUs3DC9owC33cyneI-68" value="" style="endArrow=classic;html=1;rounded=0;strokeWidth=5;strokeColor=#00c800;exitX=0.5;exitY=0;exitDx=0;exitDy=0;entryX=0.5;entryY=1;entryDx=0;entryDy=0;" edge="1" parent="1" source="al-yUs3DC9owC33cyneI-36" target="al-yUs3DC9owC33cyneI-65">
          <mxGeometry width="50" height="50" relative="1" as="geometry">
            <mxPoint x="-200" y="90" as="sourcePoint" />
            <mxPoint x="-200" y="-30" as="targetPoint" />
          </mxGeometry>
        </mxCell>
        <mxCell id="al-yUs3DC9owC33cyneI-69" value="" style="endArrow=classic;html=1;rounded=0;strokeWidth=5;strokeColor=#00c800;exitX=0.5;exitY=0;exitDx=0;exitDy=0;entryX=0.5;entryY=1;entryDx=0;entryDy=0;" edge="1" parent="1" source="al-yUs3DC9owC33cyneI-29" target="al-yUs3DC9owC33cyneI-63">
          <mxGeometry width="50" height="50" relative="1" as="geometry">
            <mxPoint x="-190" y="100" as="sourcePoint" />
            <mxPoint x="-190" y="-20" as="targetPoint" />
          </mxGeometry>
        </mxCell>
        <mxCell id="al-yUs3DC9owC33cyneI-70" value="" style="endArrow=classic;html=1;rounded=0;strokeWidth=5;strokeColor=#00c800;exitX=0.5;exitY=0;exitDx=0;exitDy=0;entryX=0.5;entryY=1;entryDx=0;entryDy=0;" edge="1" parent="1" source="1oog33LeQx-Wt4bM4erJ-14" target="0VppsKLyr3tMA3nW60oo-6">
          <mxGeometry width="50" height="50" relative="1" as="geometry">
            <mxPoint x="-180" y="110" as="sourcePoint" />
            <mxPoint x="-180" y="-10" as="targetPoint" />
          </mxGeometry>
        </mxCell>
        <mxCell id="1oog33LeQx-Wt4bM4erJ-27" value="" style="endArrow=classic;html=1;rounded=0;strokeWidth=5;strokeColor=#00c800;exitX=0.5;exitY=0;exitDx=0;exitDy=0;entryX=0.5;entryY=1;entryDx=0;entryDy=0;" parent="1" source="al-yUs3DC9owC33cyneI-38" target="al-yUs3DC9owC33cyneI-61" edge="1">
          <mxGeometry width="50" height="50" relative="1" as="geometry">
            <mxPoint x="-210" y="80" as="sourcePoint" />
            <mxPoint x="-210" y="-40" as="targetPoint" />
          </mxGeometry>
        </mxCell>
      </root>
    </mxGraphModel>
  </diagram>
</mxfile>
